<svg width="118" height="118" viewBox="0 0 118 118" fill="none" xmlns="http://www.w3.org/2000/svg">
<g filter="url(#filter0_d)">
<rect x="34" y="20" width="50" height="50" rx="10" fill="#3D41D7"/>
</g>
<path fill-rule="evenodd" clip-rule="evenodd" d="M60.3636 36C60.3636 35.4477 59.9159 35 59.3636 35H58.6364C58.0841 35 57.6364 35.4477 57.6364 36V42.6364C57.6364 43.1886 57.1886 43.6364 56.6364 43.6364H50C49.4477 43.6364 49 44.0841 49 44.6364V45.3636C49 45.9159 49.4477 46.3636 50 46.3636H56.6364C57.1886 46.3636 57.6364 46.8114 57.6364 47.3636V54C57.6364 54.5523 58.0841 55 58.6364 55H59.3636C59.9159 55 60.3636 54.5523 60.3636 54V47.3636C60.3636 46.8114 60.8114 46.3636 61.3636 46.3636H68C68.5523 46.3636 69 45.9159 69 45.3636V44.6364C69 44.0841 68.5523 43.6364 68 43.6364H61.3636C60.8114 43.6364 60.3636 43.1886 60.3636 42.6364V36Z" fill="white"/>
<defs>
<filter id="filter0_d" x="0" y="0" width="118" height="118" filterUnits="userSpaceOnUse" color-interpolation-filters="sRGB">
<feFlood flood-opacity="0" result="BackgroundImageFix"/>
<feColorMatrix in="SourceAlpha" type="matrix" values="0 0 0 0 0 0 0 0 0 0 0 0 0 0 0 0 0 0 127 0"/>
<feOffset dy="14"/>
<feGaussianBlur stdDeviation="17"/>
<feColorMatrix type="matrix" values="0 0 0 0 0.1325 0 0 0 0 0.145427 0 0 0 0 0.6625 0 0 0 0.4 0"/>
<feBlend mode="normal" in2="BackgroundImageFix" result="effect1_dropShadow"/>
<feBlend mode="normal" in="SourceGraphic" in2="effect1_dropShadow" result="shape"/>
</filter>
</defs>
</svg>
